# xmcd CD database file
#
# Track frame offsets:
#	150
#	12217
#	30165
#	50350
#	64520
#	91195
#	110635
#	118007
#	138172
#	154337
#	175360
#	212557
#	221002
#
# Disc length: 3189 seconds
#
# Revision: 1
# Processed by: cddbd v1.5.1PL0 Copyright (c) Steve Scherf et al.
# Submitted via: CDex 1.51
#
DISCID=aa0c730d
DTITLE=Darkane - Insanity
DYEAR=2001
DGENRE=Deathrash
TTITLE0=Calamitas
TTITLE1=Third
TTITLE2=Emanation Of Fear
TTITLE3=Impure Perfection
TTITLE4=Hostile Phantasm
TTITLE5=Psychic Pain
TTITLE6=000111
TTITLE7=The Perverted Beast
TTITLE8=Distress
TTITLE9=Inauspicious Coming
TTITLE10=Pile Of Hate
TTITLE11=Inverted Spheres
TTITLE12=Convicted (Live)
EXTD=YEAR: 2001
EXTT0=
EXTT1=
EXTT2=
EXTT3=
EXTT4=
EXTT5=
EXTT6=
EXTT7=
EXTT8=
EXTT9=
EXTT10=
EXTT11=
EXTT12=
PLAYORDER=
